<?xml version="1.0" standalone="no"?>
<!DOCTYPE svg PUBLIC "-//W3C//DTD SVG 20010904//EN"
 "http://www.w3.org/TR/2001/REC-SVG-20010904/DTD/svg10.dtd">
<svg version="1.0" xmlns="http://www.w3.org/2000/svg"
 width="1500.000000pt" height="1500.000000pt" viewBox="0 0 1500.000000 1500.000000"
 preserveAspectRatio="xMidYMid meet">
<metadata>
Created by potrace 1.14, written by Peter Selinger 2001-2017
</metadata>
<g transform="translate(0.000000,1500.000000) scale(0.100000,-0.100000)"
fill="#000000" stroke="none">
<path d="M7297 14404 c-1 -1 -69 -4 -152 -8 -82 -4 -168 -8 -190 -10 -22 -3
-74 -7 -115 -10 -41 -4 -88 -8 -105 -11 -16 -2 -70 -9 -120 -15 -137 -16 -178
-22 -200 -26 -11 -2 -45 -8 -75 -14 -30 -6 -65 -12 -76 -14 -12 -2 -37 -7 -55
-10 -191 -32 -613 -140 -849 -217 -214 -70 -455 -161 -610 -232 -30 -13 -84
-37 -120 -53 -89 -38 -435 -214 -487 -247 -24 -15 -44 -27 -46 -27 -10 0 -189
-107 -391 -235 -177 -113 -481 -341 -701 -529 -232 -197 -549 -510 -700 -690
-56 -67 -64 -76 -116 -137 -57 -66 -240 -302 -279 -359 -8 -12 -22 -32 -31
-44 -39 -51 -191 -281 -256 -386 -207 -335 -327 -574 -539 -1065 -94 -221
-246 -709 -315 -1015 -16 -74 -32 -144 -35 -155 -2 -11 -6 -33 -9 -50 -3 -16
-10 -52 -15 -80 -5 -27 -12 -66 -14 -85 -8 -48 -16 -92 -21 -110 -2 -8 -7 -41
-10 -73 -4 -32 -8 -67 -10 -77 -2 -10 -7 -50 -10 -87 -4 -37 -9 -77 -11 -88
-2 -11 -6 -49 -9 -85 -3 -36 -7 -90 -10 -120 -14 -171 -18 -284 -17 -550 0
-162 3 -331 6 -375 4 -44 9 -114 11 -155 3 -41 7 -88 10 -105 2 -16 7 -61 10
-100 4 -38 8 -77 10 -85 3 -8 7 -42 10 -75 6 -60 18 -138 40 -255 2 -14 9 -52
14 -85 6 -33 12 -70 15 -81 2 -12 7 -38 10 -59 4 -20 8 -41 11 -45 2 -3 7 -22
10 -41 19 -111 119 -481 175 -644 17 -49 37 -110 44 -135 18 -59 141 -379 173
-450 14 -30 43 -95 65 -145 39 -88 177 -368 216 -436 219 -390 396 -659 622
-950 399 -513 922 -1018 1403 -1354 126 -89 328 -225 332 -225 2 0 30 -17 62
-39 163 -108 571 -326 800 -427 70 -31 151 -67 178 -79 257 -116 816 -295
1140 -365 28 -6 61 -13 75 -16 122 -27 129 -29 280 -54 69 -12 139 -23 155
-26 37 -7 56 -9 220 -29 281 -33 408 -39 815 -40 372 0 514 7 790 40 63 8 254
35 280 40 14 3 39 7 55 10 17 3 41 7 55 10 14 3 41 7 60 10 78 13 98 17 160
31 36 9 76 18 90 20 122 24 452 114 620 170 74 25 142 47 150 49 16 3 28 8
240 90 501 195 1014 472 1469 792 130 92 427 321 500 387 20 18 86 77 146 131
209 188 495 484 651 675 16 19 33 40 39 46 5 6 20 24 32 40 12 16 71 92 130
169 59 78 128 170 152 205 94 138 191 282 191 286 0 2 24 41 53 86 77 121 202
347 306 554 50 100 91 184 91 187 0 3 16 41 36 84 116 249 330 872 379 1103 1
8 8 33 13 55 6 22 13 51 16 65 3 14 21 102 40 196 20 93 38 186 40 205 3 19
10 61 15 94 11 65 16 106 27 200 3 33 8 69 10 80 7 37 19 165 31 320 10 138
11 791 0 905 -4 47 -10 121 -13 165 -3 44 -7 91 -9 105 -2 14 -7 50 -10 80 -3
30 -8 66 -10 80 -2 14 -7 48 -10 75 -21 184 -109 618 -172 845 -19 69 -41 148
-48 175 -45 167 -201 596 -278 765 -14 30 -46 102 -72 159 -70 157 -158 327
-266 516 -87 153 -273 452 -288 465 -3 3 -10 13 -16 22 -55 94 -346 474 -465
608 -41 47 -88 101 -105 119 -123 141 -414 428 -560 552 -22 19 -42 36 -45 39
-22 22 -156 133 -255 210 -66 51 -122 96 -125 99 -3 3 -19 16 -36 27 -16 12
-84 59 -150 106 -305 214 -711 448 -1039 598 -278 127 -494 213 -760 301 -88
29 -164 54 -170 55 -5 1 -77 21 -159 44 -81 23 -156 43 -165 45 -9 2 -65 15
-126 29 -121 28 -454 91 -525 100 -25 3 -83 10 -130 16 -47 5 -101 12 -120 15
-19 2 -64 7 -100 10 -36 3 -83 8 -104 10 -102 11 -739 27 -749 19z"/>
</g>
</svg>
